<svg width="14" height="14" viewBox="0 0 14 14" fill="none" xmlns="http://www.w3.org/2000/svg">
<path d="M10 1H4C2.34315 1 1 2.34315 1 4V10C1 11.6569 2.34315 13 4 13H10C11.6569 13 13 11.6569 13 10V4C13 2.34315 11.6569 1 10 1Z" stroke="#666666" stroke-linecap="round" stroke-linejoin="round"/>
<path d="M9.4 6.622C9.47405 7.12135 9.38876 7.63133 9.15626 8.07941C8.92376 8.52749 8.55589 8.89085 8.10498 9.1178C7.65406 9.34476 7.14307 9.42376 6.64467 9.34356C6.14628 9.26336 5.68586 9.02805 5.3289 8.6711C4.97195 8.31414 4.73664 7.85373 4.65644 7.35533C4.57624 6.85693 4.65524 6.34594 4.8822 5.89502C5.10915 5.44411 5.47251 5.07624 5.92059 4.84375C6.36867 4.61125 6.87865 4.52595 7.378 4.6C7.88735 4.67553 8.35891 4.91288 8.72302 5.27698C9.08712 5.64109 9.32447 6.11265 9.4 6.622Z" stroke="#666666" stroke-linecap="round" stroke-linejoin="round"/>
</svg>
