<svg width="16" height="15" viewBox="0 0 16 15" fill="none" xmlns="http://www.w3.org/2000/svg">
<path d="M10.8 5.10526C11.9139 5.10526 12.9822 5.53778 13.7698 6.30767C14.5575 7.07755 15 8.12174 15 9.21053V14H12.2V9.21053C12.2 8.8476 12.0525 8.49954 11.7899 8.24291C11.5274 7.98628 11.1713 7.84211 10.8 7.84211C10.4287 7.84211 10.0726 7.98628 9.81005 8.24291C9.5475 8.49954 9.4 8.8476 9.4 9.21053V14H6.6V9.21053C6.6 8.12174 7.0425 7.07755 7.83015 6.30767C8.6178 5.53778 9.68609 5.10526 10.8 5.10526Z" stroke="#666666" stroke-linecap="round" stroke-linejoin="round"/>
<path d="M3.8 5.78947H1V14H3.8V5.78947Z" stroke="#666666" stroke-linecap="round" stroke-linejoin="round"/>
<path d="M2.4 3.73684C3.1732 3.73684 3.8 3.12418 3.8 2.36842C3.8 1.61266 3.1732 1 2.4 1C1.6268 1 1 1.61266 1 2.36842C1 3.12418 1.6268 3.73684 2.4 3.73684Z" stroke="#666666" stroke-linecap="round" stroke-linejoin="round"/>
</svg>
