<svg width="12" height="16" viewBox="0 0 12 16" fill="none" xmlns="http://www.w3.org/2000/svg">
<path d="M6 11.45C5.58579 11.45 5.25 11.7858 5.25 12.2C5.25 12.6142 5.58579 12.95 6 12.95V11.45ZM6.00714 12.95C6.42135 12.95 6.75714 12.6142 6.75714 12.2C6.75714 11.7858 6.42135 11.45 6.00714 11.45V12.95ZM2.42857 1.75H9.57143V0.25H2.42857V1.75ZM9.57143 1.75C9.96055 1.75 10.25 2.05523 10.25 2.4H11.75C11.75 1.19838 10.7603 0.25 9.57143 0.25V1.75ZM10.25 2.4V13.6H11.75V2.4H10.25ZM10.25 13.6C10.25 13.9448 9.96055 14.25 9.57143 14.25V15.75C10.7603 15.75 11.75 14.8016 11.75 13.6H10.25ZM9.57143 14.25H2.42857V15.75H9.57143V14.25ZM2.42857 14.25C2.03945 14.25 1.75 13.9448 1.75 13.6H0.25C0.25 14.8016 1.23974 15.75 2.42857 15.75V14.25ZM1.75 13.6V2.4H0.25V13.6H1.75ZM1.75 2.4C1.75 2.05523 2.03945 1.75 2.42857 1.75V0.25C1.23974 0.25 0.25 1.19838 0.25 2.4H1.75ZM6 12.95H6.00714V11.45H6V12.95Z" fill="#666666"/>
</svg>
