<svg width="17" height="14" viewBox="0 0 17 14" fill="none" xmlns="http://www.w3.org/2000/svg">
<path d="M15.6667 0.999868C15.0283 1.45019 14.3214 1.79461 13.5733 2.01987C13.1718 1.55821 12.6382 1.231 12.0447 1.08249C11.4512 0.933975 10.8263 0.971332 10.2547 1.1895C9.68311 1.40768 9.19229 1.79614 8.84865 2.30235C8.50501 2.80856 8.32513 3.40809 8.33333 4.01987V4.68653C7.16176 4.71691 6.00085 4.45708 4.95401 3.93017C3.90716 3.40325 3.00688 2.62562 2.33333 1.66653C2.33333 1.66653 -0.333333 7.66653 5.66667 10.3332C4.29369 11.2652 2.6581 11.7325 1 11.6665C7 14.9999 14.3333 11.6665 14.3333 3.99987C14.3327 3.81417 14.3149 3.62893 14.28 3.44653C14.9604 2.77553 15.4406 1.92834 15.6667 0.999868Z" stroke="#666666" stroke-linecap="round" stroke-linejoin="round"/>
</svg>
